<svg width="29" height="29" viewBox="0 0 29 29" fill="none" xmlns="http://www.w3.org/2000/svg">
<path d="M9.00008 5.46663L12.3334 7.33329L10.4667 3.99996L12.3334 0.666626L9.00008 2.53329L5.66675 0.666626L7.53341 3.99996L5.66675 7.33329L9.00008 5.46663ZM25.0001 18.5333L21.6667 16.6666L23.5334 20L21.6667 23.3333L25.0001 21.4666L28.3334 23.3333L26.4667 20L28.3334 16.6666L25.0001 18.5333ZM28.3334 0.666626L25.0001 2.53329L21.6667 0.666626L23.5334 3.99996L21.6667 7.33329L25.0001 5.46663L28.3334 7.33329L26.4667 3.99996L28.3334 0.666626ZM18.1601 7.71996C17.6401 7.19996 16.8001 7.19996 16.2801 7.71996L0.720078 23.28C0.200078 23.8 0.200078 24.64 0.720078 25.16L3.84008 28.28C4.36008 28.8 5.20008 28.8 5.72008 28.28L21.2667 12.7333C21.7867 12.2133 21.7867 11.3733 21.2667 10.8533L18.1601 7.71996ZM16.7867 15.04L13.9601 12.2133L17.2134 8.95996L20.0401 11.7866L16.7867 15.04Z" fill="#3C41E7"/>
</svg>
