<svg width="20" height="15" viewBox="0 0 20 15" fill="none" xmlns="http://www.w3.org/2000/svg">
<path d="M19.4019 1.71796C19.3726 1.36639 19.2554 1.07343 18.9917 0.809753L18.9038 0.721863C18.6401 0.516785 18.3472 0.399597 18.0249 0.399597C17.9956 0.399597 17.5562 0.311707 17.0581 0.809753L7.21436 10.6535L2.26318 5.73163C1.99951 5.52655 1.73584 5.40936 1.41357 5.40936C1.35498 5.40936 0.915527 5.32147 0.41748 5.81952C-0.13916 6.37616 -0.13916 7.25507 0.41748 7.75311L7.21436 14.55L19.1089 2.65546C19.314 2.39178 19.4019 2.12811 19.4019 1.80585C19.4019 1.77655 19.4019 1.74725 19.4019 1.71796Z" fill="#A9A9BC"/>
</svg>
