<svg width="20" height="15" viewBox="0 0 20 15" fill="none" xmlns="http://www.w3.org/2000/svg">
<path d="M19.4019 1.71797C19.3726 1.36641 19.2554 1.07344 18.9917 0.809769L18.9038 0.721878C18.6401 0.5168 18.3472 0.399612 18.0249 0.399612C17.9956 0.399612 17.5562 0.311722 17.0581 0.809769L7.21436 10.6535L2.26318 5.73164C1.99951 5.52657 1.73584 5.40938 1.41357 5.40938C1.35498 5.40938 0.915527 5.32149 0.41748 5.81953C-0.13916 6.37617 -0.13916 7.25508 0.41748 7.75313L7.21436 14.55L19.1089 2.65547C19.314 2.3918 19.4019 2.12813 19.4019 1.80586C19.4019 1.77657 19.4019 1.74727 19.4019 1.71797Z" fill="#3C41E7"/>
</svg>
