<svg width="19" height="26" viewBox="0 0 19 26" fill="none" xmlns="http://www.w3.org/2000/svg">
<path d="M18.4143 3.05859C18.387 2.21094 18.0588 1.5 17.4299 0.925781C16.801 0.351562 16.0627 0.0507812 15.2151 0.0507812H3.37524C2.52759 0.105469 1.78931 0.433594 1.21509 1.03516C0.640869 1.66406 0.340088 2.40234 0.340088 3.25V25.8086L8.76196 20.6133C8.95337 20.5312 9.17212 20.4766 9.39087 20.4766C9.44556 20.4766 9.71899 20.4492 10.1565 20.6953L18.4417 25.8086V3.25L18.4143 3.05859ZM10.676 19C10.2659 18.8086 9.85571 18.7266 9.39087 18.7266C9.25415 18.7266 8.5979 18.6445 7.69556 19.2188L2.09009 22.6914V3.25L2.11743 3.11328C2.19946 2.34766 2.80103 1.80078 3.56665 1.80078H15.3792L15.5159 1.82812C16.1721 1.9375 16.6917 2.56641 16.6917 3.25V22.6914L11.0862 19.2188L10.676 19ZM6.19165 16.0742L9.39087 13.7227L12.5901 16.0742C12.6995 16.1016 12.7542 16.1289 12.7815 16.1289C12.8088 16.1289 12.8635 16.1016 12.8909 16.1016C13.0823 16.0742 13.1096 15.9102 13.1096 15.7734C13.1096 15.7461 13.1096 15.7188 13.1096 15.6914L11.8792 11.918L15.0784 9.59375C15.1877 9.51172 15.2151 9.42969 15.2151 9.32031C15.2151 9.12891 15.0784 8.99219 14.887 8.99219H10.9221L9.69165 5.21875C9.66431 5.13672 9.58228 5.02734 9.50024 5.02734C9.4729 5 9.41821 5 9.39087 5C9.28149 5 9.11743 5.08203 9.09009 5.21875L7.85962 8.99219H3.89478C3.7854 8.99219 3.70337 9.04688 3.62134 9.12891C3.59399 9.18359 3.56665 9.23828 3.56665 9.32031C3.56665 9.34766 3.56665 9.48438 3.70337 9.59375L6.90259 11.918L5.67212 15.6914C5.67212 15.7188 5.64478 15.7734 5.64478 15.8008C5.64478 15.8281 5.64478 15.9102 5.72681 15.9922C5.83618 16.1289 5.9729 16.1289 6.00024 16.1289C6.08228 16.1289 6.13696 16.1016 6.19165 16.0742Z" fill="white"/>
</svg>
