<svg width="78" height="20" viewBox="0 0 78 20" fill="none" xmlns="http://www.w3.org/2000/svg">
<path d="M8.99336 3.91174V1.41174H1.19336V18.5882H8.99336V16.0882C7.39552 16.0882 5.86311 15.4467 4.7333 14.305C3.60347 13.1632 2.96873 11.6147 2.96873 9.99998C2.96873 8.38528 3.60347 6.83669 4.7333 5.69495C5.86311 4.55318 7.39552 3.91174 8.99336 3.91174Z" fill="white"/>
<path d="M8.99341 3.91174V16.0882C10.5912 16.0882 12.1237 15.4467 13.2535 14.305C14.3833 13.1632 15.018 11.6147 15.018 9.99998C15.018 8.38528 14.3833 6.83669 13.2535 5.69495C12.1237 4.55318 10.5912 3.91174 8.99341 3.91174Z" fill="white"/>
<path d="M19.3953 5.44116H21.1415V13.9412H19.3953V5.44116Z" fill="white"/>
<path d="M22.1194 11.0295C22.1194 10.4179 22.2991 9.82016 22.6357 9.31192C22.9722 8.80369 23.4505 8.40787 24.01 8.17463C24.5694 7.94145 25.1848 7.88134 25.778 8.00192C26.3713 8.12251 26.9158 8.41839 27.3424 8.85204C27.7691 9.28575 28.0588 9.83763 28.1748 10.4379C28.2907 11.0381 28.2277 11.6596 27.9937 12.2236C27.7597 12.7875 27.3653 13.2686 26.8605 13.6058C26.3556 13.943 25.7631 14.1212 25.1579 14.1177C24.7566 14.1209 24.3586 14.043 23.9874 13.8887C23.6162 13.7344 23.2792 13.5067 22.9962 13.2192C22.7131 12.9315 22.4899 12.5896 22.3393 12.2136C22.1887 11.8376 22.114 11.435 22.1194 11.0295ZM26.4967 11.0295C26.4899 10.7658 26.4062 10.51 26.2563 10.2942C26.1063 10.0783 25.8968 9.91192 25.6537 9.81581C25.4107 9.71969 25.145 9.6981 24.8899 9.75381C24.6348 9.80945 24.4016 9.93987 24.2195 10.1288C24.0373 10.3177 23.9143 10.5566 23.8659 10.8158C23.8175 11.075 23.8457 11.3428 23.9471 11.5858C24.0485 11.8288 24.2185 12.0363 24.436 12.1821C24.6534 12.328 24.9086 12.4058 25.1696 12.4059C25.3473 12.4095 25.5238 12.3759 25.688 12.3073C25.8523 12.2387 26.0008 12.1367 26.1243 12.0075C26.2477 11.8783 26.3435 11.7247 26.4056 11.5565C26.4677 11.3882 26.4948 11.2088 26.4851 11.0295H26.4967Z" fill="white"/>
<path d="M35.1057 8.11769V13.653C35.1057 15.6059 33.5923 16.4353 32.0614 16.4353C31.5214 16.4801 30.9798 16.3717 30.4975 16.1223C30.0152 15.8729 29.6113 15.4923 29.3314 15.0236L30.8041 14.1647C30.9234 14.4079 31.1132 14.6085 31.3483 14.7399C31.5833 14.8712 31.8524 14.9271 32.1196 14.9C32.2899 14.9212 32.4626 14.9042 32.6256 14.85C32.7886 14.7959 32.9376 14.706 33.0622 14.5869C33.1868 14.4677 33.2838 14.3222 33.3463 14.1607C33.4087 13.9993 33.4351 13.8259 33.4235 13.653V13.1177C33.2203 13.3667 32.9624 13.5643 32.6704 13.695C32.3784 13.8257 32.0603 13.8859 31.7413 13.8706C30.9693 13.8706 30.2291 13.5607 29.6833 13.0092C29.1375 12.4576 28.8308 11.7095 28.8308 10.9295C28.8308 10.1494 29.1375 9.40134 29.6833 8.84975C30.2291 8.29816 30.9693 7.98828 31.7413 7.98828C32.0603 7.97304 32.3784 8.03316 32.6704 8.16387C32.9624 8.29457 33.2203 8.49222 33.4235 8.74122V8.15298L35.1057 8.11769ZM33.4235 10.9118C33.4351 10.6304 33.3631 10.3519 33.2169 10.1121C33.0706 9.87234 32.8567 9.68228 32.6026 9.56634C32.3486 9.45039 32.0661 9.41392 31.7914 9.46157C31.5167 9.50922 31.2623 9.63881 31.0611 9.83369C30.8599 10.0286 30.7209 10.2799 30.6621 10.5552C30.6033 10.8306 30.6274 11.1173 30.7312 11.3787C30.835 11.6402 31.0138 11.8642 31.2446 12.0221C31.4755 12.18 31.7478 12.2645 32.0265 12.2647C32.2084 12.278 32.391 12.2525 32.5625 12.19C32.734 12.1275 32.8907 12.0293 33.0223 11.9018C33.154 11.7743 33.2577 11.6203 33.3268 11.4498C33.3959 11.2793 33.4289 11.096 33.4235 10.9118Z" fill="white"/>
<path d="M36.0896 11.0294C36.0896 10.4183 36.269 9.82106 36.605 9.31306C36.941 8.80506 37.4186 8.40923 37.9774 8.1757C38.5361 7.94211 39.1509 7.88129 39.7439 8.00094C40.3368 8.12058 40.8813 8.41529 41.3085 8.84776C41.7357 9.28029 42.0262 9.83111 42.1435 10.4305C42.2608 11.03 42.1994 11.6511 41.9672 12.2153C41.735 12.7795 41.3424 13.2614 40.8391 13.6001C40.3358 13.9387 39.7444 14.1188 39.1397 14.1176C38.7376 14.1216 38.3387 14.0444 37.9665 13.8905C37.5943 13.7366 37.2562 13.5092 36.9722 13.2215C36.6881 12.9339 36.4637 12.5918 36.3121 12.2154C36.1606 11.839 36.0849 11.4358 36.0896 11.0294ZM40.4669 11.0294C40.46 10.7655 40.3762 10.5095 40.226 10.2935C40.0758 10.0776 39.8659 9.91117 39.6225 9.81523C39.3791 9.71929 39.1132 9.69806 38.8579 9.75423C38.6027 9.81035 38.3695 9.94141 38.1876 10.1309C38.0057 10.3203 37.8831 10.5599 37.8354 10.8194C37.7876 11.0789 37.8167 11.3469 37.9189 11.5898C38.0212 11.8328 38.1922 12.0398 38.4104 12.1849C38.6286 12.3301 38.8843 12.4069 39.1455 12.4059C39.3232 12.4094 39.4997 12.3758 39.664 12.3072C39.8283 12.2387 39.9768 12.1366 40.1002 12.0075C40.2237 11.8783 40.3194 11.7247 40.3815 11.5565C40.4436 11.3882 40.4707 11.2088 40.4611 11.0294H40.4669Z" fill="white"/>
<path d="M42.999 6.55878C42.999 6.35172 43.0598 6.14925 43.1736 5.97707C43.2875 5.80487 43.4493 5.67067 43.6386 5.59142C43.828 5.51217 44.0363 5.49144 44.2373 5.53184C44.4382 5.57224 44.6229 5.67196 44.7678 5.8184C44.9127 5.96484 45.0114 6.15143 45.0513 6.35448C45.0913 6.5576 45.0708 6.76813 44.9924 6.95948C44.914 7.15078 44.7811 7.31431 44.6108 7.42937C44.4404 7.54443 44.2401 7.60584 44.0351 7.60584C43.7613 7.60278 43.4995 7.49148 43.3058 7.29578C43.1122 7.10007 43.0021 6.83554 42.999 6.55878ZM43.1678 8.1176H44.9141V13.9411H43.1678V8.1176Z" fill="white"/>
<path d="M52.388 11.0294C52.4076 11.4167 52.3511 11.8041 52.222 12.1693C52.0929 12.5345 51.8935 12.8703 51.6355 13.1573C51.3774 13.4443 51.0657 13.6769 50.7183 13.8417C50.371 14.0066 49.9948 14.1003 49.6114 14.1177C49.2861 14.1396 48.9601 14.0869 48.6577 13.9637C48.3553 13.8404 48.0844 13.6497 47.8652 13.4059V16.2824H46.1189V8.11768H47.8652V8.66473C48.0847 8.42162 48.3559 8.23185 48.6583 8.10962C48.9607 7.98732 49.2865 7.93579 49.6114 7.95885C49.9933 7.9762 50.368 8.06944 50.7141 8.23315C51.0603 8.39685 51.3712 8.62791 51.629 8.91303C51.8869 9.19815 52.0866 9.53179 52.2168 9.89497C52.347 10.2581 52.4052 10.6436 52.388 11.0294ZM50.6417 11.0294C50.6349 10.7562 50.5483 10.4911 50.393 10.2674C50.2377 10.0437 50.0205 9.87126 49.7686 9.77179C49.5167 9.67226 49.2414 9.65015 48.9771 9.70809C48.7128 9.76603 48.4713 9.90156 48.2829 10.0976C48.0945 10.2937 47.9676 10.5416 47.918 10.8103C47.8684 11.0789 47.8984 11.3564 48.0042 11.6079C48.11 11.8594 48.2869 12.0737 48.5128 12.2241C48.7386 12.3744 49.0034 12.454 49.2738 12.453C49.459 12.4609 49.6438 12.4292 49.8161 12.3599C49.9884 12.2906 50.1442 12.1853 50.2734 12.0509C50.4025 11.9165 50.5021 11.756 50.5656 11.58C50.6291 11.4039 50.655 11.2163 50.6417 11.0294Z" fill="white"/>
<path d="M57.7026 12.1942C57.7026 13.5353 56.5384 14.1059 55.3044 14.1059C54.8011 14.1517 54.2958 14.0439 53.8537 13.7964C53.4117 13.5489 53.0532 13.1732 52.8247 12.7177L54.3265 11.8589C54.386 12.0687 54.515 12.2516 54.6919 12.3769C54.8689 12.5022 55.083 12.5623 55.2986 12.5471C55.7119 12.5471 55.9214 12.4177 55.9214 12.1824C55.9214 11.5412 53.0866 11.8824 53.0866 9.86474C53.0866 8.59415 54.1461 7.95886 55.3452 7.95886C55.8009 7.93821 56.2538 8.04274 56.6555 8.26127C57.0573 8.4798 57.3929 8.80421 57.6269 9.20004L56.1252 10C56.0588 9.84827 55.9504 9.71921 55.813 9.62839C55.6756 9.53757 55.5151 9.48892 55.351 9.48827C55.0483 9.48827 54.8678 9.60592 54.8678 9.8118C54.8678 10.4824 57.7026 10.0412 57.7026 12.1942Z" fill="white"/>
<path d="M64.0297 8.11768V13.9412H62.2835V13.3941C62.085 13.6363 61.8329 13.8279 61.5483 13.9536C61.2631 14.0793 60.9528 14.1355 60.642 14.1177C59.4778 14.1177 58.4824 13.2765 58.4824 11.7059V8.11768H60.2287V11.4412C60.2147 11.5801 60.231 11.7204 60.2764 11.8524C60.3218 11.9844 60.3946 12.1049 60.49 12.2056C60.5861 12.3062 60.7025 12.3847 60.8312 12.4356C60.9598 12.4864 61.0977 12.5084 61.2357 12.5C61.8644 12.5 62.3068 12.1236 62.3068 11.3236V8.11768H64.0297Z" fill="white"/>
<path d="M73.9254 10.3648V13.9412H72.1792V10.5177C72.1792 9.92946 71.9056 9.56475 71.3526 9.56475C70.7996 9.56475 70.4503 9.97063 70.4503 10.6589V13.9412H68.7041V10.5177C68.7041 9.92946 68.4305 9.56475 67.8775 9.56475C67.3245 9.56475 66.9753 9.97063 66.9753 10.6589V13.9412H65.229V8.11769H66.9753V8.65299C67.1563 8.41652 67.392 8.22922 67.6627 8.10804C67.9328 7.98687 68.2291 7.93557 68.5236 7.95887C68.8188 7.94328 69.1133 8.00563 69.3776 8.13969C69.6418 8.27375 69.8671 8.47499 70.0312 8.72357C70.2233 8.46381 70.4771 8.25746 70.7693 8.12375C71.061 7.98999 71.3823 7.93328 71.7018 7.95887C73.0639 7.95887 73.9254 8.91181 73.9254 10.3648Z" fill="white"/>
<path d="M75.3922 8.08238C76.0994 8.08238 76.6728 7.50296 76.6728 6.78826C76.6728 6.07355 76.0994 5.49414 75.3922 5.49414C74.6849 5.49414 74.1116 6.07355 74.1116 6.78826C74.1116 7.50296 74.6849 8.08238 75.3922 8.08238Z" fill="white"/>
</svg>
