<svg width="16" height="17" viewBox="0 0 16 17" fill="none" xmlns="http://www.w3.org/2000/svg">
<path d="M15.1245 16.0188C15.6812 15.4621 15.6812 14.5539 15.1245 13.968L9.82178 8.66524L15.1245 3.3625C15.6812 2.80586 15.6812 1.89766 15.1245 1.34102C14.5386 0.755081 13.6304 0.755081 13.0737 1.34102L7.771 6.64375L2.46826 1.34102C1.91162 0.755081 1.00342 0.755081 0.41748 1.34102C-0.13916 1.89766 -0.13916 2.80586 0.41748 3.3625L5.72021 8.66524L0.41748 13.968C-0.13916 14.5539 -0.13916 15.4621 0.41748 16.0188C1.00342 16.5754 1.91162 16.5754 2.46826 16.0188L7.771 10.716L13.0737 16.0188C13.6304 16.5754 14.5386 16.5754 15.1245 16.0188Z" fill="#A9A9BC"/>
</svg>
