<svg width="21" height="25" viewBox="0 0 21 25" fill="none" xmlns="http://www.w3.org/2000/svg">
<path d="M14.2734 22.8008C16.707 20.832 18.5391 18.0156 19.6055 14.7344C20.125 13.1211 20.3984 11.4805 20.3984 9.86719V4.34375L12.3867 0.898438C10.9922 0.324219 9.40625 0.324219 8.01172 0.898438L0 4.34375V9.86719C0 11.4805 0.273438 13.1211 0.792969 14.7344C1.85938 18.0156 3.69141 20.832 6.125 22.8008C7.32812 23.7852 8.61328 24.4414 10.0078 24.7422L10.1992 24.7969L10.3906 24.7422C11.7852 24.4414 13.0703 23.7852 14.2734 22.8008ZM6.97266 21.2422C3.99219 18.6992 1.75 14.0781 1.75 9.86719V5.49219L8.69531 2.51172C9.67969 2.10156 10.7188 2.10156 11.7031 2.51172L18.6484 5.49219V9.86719C18.6484 15.5 14.7109 21.8164 10.1992 22.9922C9.07812 22.6914 7.98438 22.1172 6.97266 21.2422ZM14.3281 15.5273C14.4922 15.3633 14.5742 15.1719 14.5742 14.9805C14.5742 14.9531 14.5742 14.9531 14.5742 14.9258V7.92578C14.5742 6.77734 12.8242 6.77734 12.8242 7.92578V14.9258C12.8242 15.3906 13.207 15.8008 13.6719 15.8008C13.6992 15.8008 14 15.8555 14.3281 15.5273ZM10.8281 15.5273C10.9922 15.3633 11.0742 15.1719 11.0742 14.9805C11.0742 14.9531 11.0742 14.9531 11.0742 14.9258V10.8242C11.0742 10.3594 10.6641 9.94922 10.1992 9.94922C9.73438 9.94922 9.32422 10.3594 9.32422 10.8242V14.9258C9.32422 15.3906 9.70703 15.8008 10.1719 15.8008C10.1992 15.8008 10.5 15.8555 10.8281 15.5273ZM7.32812 15.5273C7.49219 15.3633 7.57422 15.1719 7.57422 14.9805C7.57422 14.9531 7.57422 14.9531 7.57422 14.9258V13.75C7.57422 13.2852 7.16406 12.875 6.69922 12.875C6.23438 12.875 5.82422 13.2852 5.82422 13.75V14.9258C5.82422 15.3906 6.20703 15.8008 6.67188 15.8008C6.69922 15.8008 7 15.8555 7.32812 15.5273Z" fill="white"/>
</svg>
